#!OML:ASF E:\id_vita\Project 1\Capture day 1\Session 1\Female.ASF
:FULLY-SPECIFIED
:DEGREES
1024
root 15.9551 12.764 -1.17783 -182.663 85.3716 -234.183
lowerback -1.30986 -1.22373 -2.83277
upperback -0.980428 -1.59842 -0.0360176
thorax -0.194221 -0.783704 1.53104
lowerneck 4.95661 -0.679584 -10.296
upperneck -9.01741 0.0539275 17.8237
head -3.43643 -0.343508 7.28302
rclavicle -1.60767e-014 -3.07371e-014
rhumerus 16.7244 36.8445 -72.1119
rradius 38.7554
rwrist 12.0804
rhand -46.0185 -272.968
rfingers 7.12502
rthumb -18.7635 57.9167
lclavicle -1.60767e-014 -3.07371e-014
lhumerus 33.1013 -35.2775 57.3552
lradius 34.7066
lwrist -24.2124
lhand -56.9779 77.6734
lfingers 7.12502
lthumb -29.2704 1694.61
rfemur -103.721 6.66554 25.783
rtibia 91.3082
rfoot -23.8354 -16.6617
rtoes -5.98258
lfemur -23.85 -2.46777 -25.0602
ltibia 45.7748
lfoot -17.0932 2.01695
ltoes -17.2293
1025
root 16.0173 12.7487 -1.16755 -183.933 85.358 -235.316
lowerback -1.15428 -1.19481 -3.0297
upperback -0.922057 -1.56252 -0.0514643
thorax -0.218598 -0.765195 1.62865
lowerneck 4.9095 -0.697326 -10.4126
upperneck -8.99034 0.0297523 17.931
head -3.41571 -0.35301 7.33917
rclavicle 2.18912e-014 2.70844e-014
rhumerus 17.0946 37.2161 -71.5993
rradius 38.894
rwrist 11.2806
rhand -45.9325 -273.307
rfingers 7.12502
rthumb -18.6807 57.5695
lclavicle 2.18912e-014 2.70844e-014
lhumerus 33.3165 -35.3198 57.0634
lradius 35.0337
lwrist -23.9816
lhand -56.5964 78.2061
lfingers 7.12502
lthumb -28.906 1694.01
rfemur -103.438 6.72032 25.7525
rtibia 91.6876
rfoot -23.9681 -16.8317
rtoes -6.60421
lfemur -23.1686 -2.63262 -25.0868
ltibia 45.1033
lfoot -16.652 2.0556
ltoes -17.0476
1026
root 16.0793 12.7349 -1.15665 -185.733 85.3064 -237.304
lowerback -1.31703 -1.18441 -3.33679
upperback -0.960206 -1.53936 -0.0625031
thorax -0.160223 -0.752231 1.78636
lowerneck 4.9036 -0.722732 -10.4914
upperneck -8.97469 -0.00658606 18.0087
head -3.40393 -0.37097 7.38
rclavicle -1.47101e-014 1.70706e-014
rhumerus 17.2451 37.1785 -71.3983
rradius 39.0177
rwrist 11.1092
rhand -45.9971 -273.597
rfingers 7.12502
rthumb -18.7429 57.2863
lclavicle -1.47101e-014 1.70706e-014
lhumerus 33.5656 -35.3854 56.7766
lradius 35.2331
lwrist -23.7075
lhand -56.7266 76.4137
lfingers 7.12502
lthumb -29.0304 1695.83
rfemur -103.529 6.87789 25.4085
rtibia 91.9798
rfoot -23.7868 -17.2426
rtoes -8.39203
lfemur -22.9353 -2.72755 -25.2345
ltibia 44.4372
lfoot -16.069 2.01457
ltoes -16.8684
1027
root 16.1614 12.7391 -1.1469 -184.573 85.3202 -235.936
lowerback -1.0569 -1.11284 -3.25149
upperback -0.940187 -1.45483 -0.0872706
thorax -0.292812 -0.708734 1.71972
lowerneck 5.03027 -0.758784 -10.3424
upperneck -9.04314 -0.0532556 17.9141
head -3.44009 -0.40278 7.32669
rclavicle 3.12092e-014 4.70126e-014
rhumerus 17.1877 37.0537 -71.3383
rradius 39.1506
rwrist 11.1474
rhand -46.0337 -273.555
rfingers 7.12502
rthumb -18.7781 57.3313
lclavicle 3.12092e-014 4.70126e-014
lhumerus 33.7441 -35.5536 56.5404
lradius 35.3221
lwrist -23.6543
lhand -56.7834 75.272
lfingers 7.12502
lthumb -29.0847 1696.98
rfemur -103.001 6.90881 25.6347
rtibia 92.2814
rfoot -23.9326 -17.4816
rtoes -9.53947
lfemur -22.1316 -2.61405 -25.13
ltibia 43.6602
lfoot -15.4329 2.00237
ltoes -17.2149
1028
root 16.2374 12.7333 -1.14448 -181.744 85.5939 -233.425
lowerback -1.49146 -1.00162 -2.92267
upperback -0.972553 -1.29403 -0.0880681
thorax -0.0981326 -0.632239 1.52873
lowerneck 5.01596 -0.774509 -10.3579
upperneck -9.16046 -0.0560716 17.9412
head -3.47092 -0.4059 7.34116
rclavicle 3.47873e-015 1.11319e-014
rhumerus 17.5205 37.2378 -70.9039
rradius 39.1392
rwrist 11.0634
rhand -45.9576 -273.676
rfingers 7.12502
rthumb -18.7049 57.2031
lclavicle 3.47873e-015 1.11319e-014
lhumerus 33.8983 -35.5229 56.3474
lradius 35.5028
lwrist -23.8486
lhand -56.6097 74.668
lfingers 7.12502
lthumb -28.9188 1697.55
rfemur -103.097 7.18916 25.8759
rtibia 92.5154
rfoot -24.0427 -17.3617
rtoes -9.88792
lfemur -21.882 -2.57461 -24.8509
ltibia 42.9178
lfoot -14.884 1.99931
ltoes -16.3845
1029
root 16.3001 12.7208 -1.14459 -177.67 85.476 -229.436
lowerback -1.56747 -1.02443 -2.53879
upperback -0.948524 -1.32768 -0.00564845
thorax -0.035794 -0.652003 1.39597
lowerneck 4.83153 -0.789659 -10.2828
upperneck -9.1184 -0.0834147 17.7547
head -3.42356 -0.405809 7.2634
rclavicle -1.90833e-014 -1.8487e-014
rhumerus 17.8027 37.1627 -70.6341
rradius 39.135
rwrist 11.1781
rhand -45.9786 -273.763
rfingers 7.12502
rthumb -18.7251 57.1182
lclavicle -1.90833e-014 -1.8487e-014
lhumerus 34.0177 -35.4323 56.2045
lradius 35.7677
lwrist -23.908
lhand -56.4179 74.2707
lfingers 7.12502
lthumb -28.7356 1697.92
rfemur -103.098 7.1793 25.9948
rtibia 92.8269
rfoot -24.2971 -17.0587
rtoes -9.21863
lfemur -21.3683 -2.98343 -24.4468
ltibia 42.1284
lfoot -14.2597 2.02051
ltoes -16.1406
1030
root 16.3607 12.7111 -1.12303 -173.607 85.7734 -225.594
lowerback -1.69682 -0.886578 -2.48076
upperback -1.06837 -1.1421 0.105465
thorax -0.0929791 -0.557108 1.47953
lowerneck 4.90741 -0.81051 -10.0504
upperneck -9.05809 -0.141382 17.4345
head -3.41375 -0.43358 7.11754
rclavicle -8.44835e-015 -1.24737e-014
rhumerus 17.7482 37.079 -70.5445
rradius 39.2676
rwrist 11.1579
rhand -46.1506 -273.729
rfingers 7.12502
rthumb -18.8905 57.168
lclavicle -8.44835e-015 -1.24737e-014
lhumerus 34.1332 -35.6277 55.9646
lradius 36.0071
lwrist -23.617
lhand -56.4995 74.0565
lfingers 7.12502
lthumb -28.8135 1698.15
rfemur -103.104 7.72531 26.1606
rtibia 93.0908
rfoot -24.638 -16.7967
rtoes -8.07395
lfemur -21.1126 -2.72035 -24.001
ltibia 41.529
lfoot -13.5697 1.87226
ltoes -16.9534
